<?xml version="1.0" encoding="UTF-8" standalone="no"?>
<!-- Generator: Adobe Illustrator 16.0.0, SVG Export Plug-In . SVG Version: 6.00 Build 0)  -->

<svg
   xmlns:dc="http://purl.org/dc/elements/1.1/"
   xmlns:cc="http://creativecommons.org/ns#"
   xmlns:rdf="http://www.w3.org/1999/02/22-rdf-syntax-ns#"
   xmlns:svg="http://www.w3.org/2000/svg"
   xmlns="http://www.w3.org/2000/svg"
   xmlns:sodipodi="http://sodipodi.sourceforge.net/DTD/sodipodi-0.dtd"
   xmlns:inkscape="http://www.inkscape.org/namespaces/inkscape"
   version="1.1"
   id="圖層_1"
   x="0px"
   y="0px"
   width="240"
   height="320"
   viewBox="0 0 239.99999 320.00001"
   enable-background="new 0 0 102.05 136.06"
   xml:space="preserve"
   inkscape:version="0.91 r13725"
   sodipodi:docname="1.svg"><metadata
     id="metadata87"><rdf:RDF><cc:Work
         rdf:about=""><dc:format>image/svg+xml</dc:format><dc:type
           rdf:resource="http://purl.org/dc/dcmitype/StillImage" /><dc:title></dc:title></cc:Work></rdf:RDF></metadata><defs
     id="defs85" /><sodipodi:namedview
     pagecolor="#ffffff"
     bordercolor="#666666"
     borderopacity="1"
     objecttolerance="10"
     gridtolerance="10"
     guidetolerance="10"
     inkscape:pageopacity="0"
     inkscape:pageshadow="2"
     inkscape:window-width="1920"
     inkscape:window-height="1043"
     id="namedview83"
     showgrid="false"
     showborder="true"
     inkscape:zoom="1.7345289"
     inkscape:cx="52.178052"
     inkscape:cy="137.21305"
     inkscape:window-x="1920"
     inkscape:window-y="0"
     inkscape:window-maximized="1"
     inkscape:current-layer="圖層_1" /><g
     id="g3"
     transform="matrix(2.4334762,0,0,2.7210356,-7.137278,-0.15919875)"><path
       d="m 15.033,66.281 -7.805,0 0,-1.485 3.05,0 0,-10.336 -3.129,0.905 0,-1.582 4.843,-1.406 0,12.419 3.041,0 0,1.485 z"
       id="path5"
       inkscape:connector-curvature="0"
       style="fill:#444344" /><path
       d="m 17.379,64.005 c 0.932,0.721 1.983,1.081 3.155,1.081 0.938,0 1.68,-0.23 2.228,-0.69 0.548,-0.46 0.822,-1.077 0.822,-1.85 0,-1.723 -1.233,-2.584 -3.7,-2.584 l -1.134,0 0,-1.424 1.081,0 c 2.186,0 3.278,-0.809 3.278,-2.426 0,-1.494 -0.835,-2.241 -2.505,-2.241 -0.955,0 -1.854,0.322 -2.698,0.967 l 0,-1.626 c 0.891,-0.516 1.931,-0.773 3.12,-0.773 1.16,0 2.092,0.303 2.795,0.91 0.703,0.607 1.055,1.393 1.055,2.36 0,1.781 -0.908,2.927 -2.725,3.437 l 0,0.035 c 0.984,0.105 1.762,0.453 2.333,1.042 0.571,0.589 0.857,1.323 0.857,2.202 0,1.225 -0.441,2.212 -1.323,2.962 -0.882,0.75 -2.055,1.125 -3.52,1.125 -1.289,0 -2.329,-0.24 -3.12,-0.721 l 0,-1.786 z"
       id="path7"
       inkscape:connector-curvature="0"
       style="fill:#444344" /><path
       d="m 27.724,57.466 c 0,-0.316 0.111,-0.58 0.334,-0.791 0.223,-0.211 0.489,-0.316 0.8,-0.316 0.316,0 0.586,0.107 0.809,0.321 0.223,0.214 0.333,0.475 0.333,0.786 0,0.311 -0.108,0.574 -0.325,0.791 -0.217,0.217 -0.492,0.325 -0.826,0.325 -0.316,0 -0.583,-0.108 -0.8,-0.325 -0.217,-0.217 -0.325,-0.481 -0.325,-0.791 z m 0,7.91 c 0,-0.316 0.108,-0.583 0.325,-0.8 0.217,-0.217 0.486,-0.325 0.809,-0.325 0.328,0 0.601,0.11 0.817,0.33 0.216,0.22 0.325,0.484 0.325,0.795 0,0.305 -0.108,0.567 -0.325,0.787 -0.217,0.22 -0.492,0.33 -0.826,0.33 -0.322,0 -0.59,-0.11 -0.804,-0.33 -0.214,-0.22 -0.321,-0.482 -0.321,-0.787 z"
       id="path9"
       inkscape:connector-curvature="0"
       style="fill:#444344" /><path
       d="m 32.268,64.005 c 0.932,0.721 1.983,1.081 3.155,1.081 0.938,0 1.68,-0.23 2.228,-0.69 0.548,-0.46 0.822,-1.077 0.822,-1.85 0,-1.723 -1.233,-2.584 -3.7,-2.584 l -1.134,0 0,-1.424 1.081,0 c 2.186,0 3.278,-0.809 3.278,-2.426 0,-1.494 -0.835,-2.241 -2.505,-2.241 -0.955,0 -1.854,0.322 -2.698,0.967 l 0,-1.626 c 0.891,-0.516 1.931,-0.773 3.12,-0.773 1.16,0 2.092,0.303 2.795,0.91 0.703,0.607 1.055,1.393 1.055,2.36 0,1.781 -0.908,2.927 -2.725,3.437 l 0,0.035 c 0.984,0.105 1.762,0.453 2.333,1.042 0.571,0.589 0.857,1.323 0.857,2.202 0,1.225 -0.441,2.212 -1.323,2.962 -0.882,0.75 -2.055,1.125 -3.52,1.125 -1.289,0 -2.329,-0.24 -3.12,-0.721 l 0,-1.786 z"
       id="path11"
       inkscape:connector-curvature="0"
       style="fill:#444344" /><path
       d="m 45.417,59.118 c -1.623,-0.756 -2.435,-1.852 -2.435,-3.287 0,-1.002 0.381,-1.818 1.143,-2.448 0.762,-0.63 1.734,-0.945 2.918,-0.945 1.084,0 1.978,0.296 2.681,0.888 0.703,0.592 1.055,1.356 1.055,2.294 0,1.512 -0.847,2.675 -2.54,3.489 l 0,0.035 c 1.986,0.715 2.979,1.934 2.979,3.656 0,1.131 -0.408,2.032 -1.227,2.703 -0.816,0.671 -1.958,1.006 -3.423,1.006 -1.201,0 -2.18,-0.331 -2.936,-0.993 -0.756,-0.662 -1.134,-1.521 -1.134,-2.575 0,-1.734 0.973,-2.997 2.918,-3.788 l 0,-0.035 z m 1.335,0.818 c -1.682,0.68 -2.522,1.652 -2.522,2.918 0,0.656 0.246,1.195 0.738,1.617 0.492,0.422 1.134,0.633 1.925,0.633 0.768,0 1.392,-0.209 1.872,-0.628 0.48,-0.419 0.721,-0.942 0.721,-1.569 0,-1.319 -0.911,-2.309 -2.734,-2.971 z m 2.286,-4.114 c 0,-0.609 -0.19,-1.09 -0.571,-1.441 -0.381,-0.351 -0.896,-0.527 -1.547,-0.527 -0.609,0 -1.128,0.183 -1.556,0.549 -0.428,0.366 -0.642,0.833 -0.642,1.402 0,1.137 0.712,2.001 2.136,2.593 1.453,-0.604 2.18,-1.462 2.18,-2.576 z"
       id="path13"
       inkscape:connector-curvature="0"
       style="fill:#444344" /><path
       d="m 53.168,57.466 c 0,-0.316 0.111,-0.58 0.334,-0.791 0.223,-0.211 0.49,-0.316 0.801,-0.316 0.316,0 0.586,0.107 0.809,0.321 0.223,0.214 0.334,0.476 0.334,0.787 0,0.311 -0.109,0.574 -0.326,0.791 -0.217,0.217 -0.492,0.325 -0.826,0.325 -0.316,0 -0.582,-0.108 -0.799,-0.325 -0.217,-0.217 -0.327,-0.482 -0.327,-0.792 z m 0,7.91 c 0,-0.316 0.109,-0.583 0.326,-0.8 0.217,-0.217 0.486,-0.325 0.809,-0.325 0.328,0 0.6,0.11 0.816,0.33 0.216,0.22 0.326,0.485 0.326,0.795 0,0.305 -0.109,0.567 -0.326,0.787 -0.217,0.22 -0.492,0.33 -0.826,0.33 -0.322,0 -0.59,-0.11 -0.803,-0.33 -0.215,-0.22 -0.322,-0.482 -0.322,-0.787 z"
       id="path15"
       inkscape:connector-curvature="0"
       style="fill:#444344" /><path
       d="m 65.666,66.281 -8.279,0 0,-1.494 3.955,-3.946 c 1.09,-1.09 1.82,-1.953 2.189,-2.588 0.369,-0.635 0.553,-1.293 0.553,-1.973 0,-0.773 -0.217,-1.367 -0.65,-1.78 -0.433,-0.413 -1.061,-0.62 -1.881,-0.62 -1.213,0 -2.369,0.516 -3.471,1.547 l 0,-1.749 c 1.072,-0.826 2.32,-1.239 3.744,-1.239 1.225,0 2.191,0.331 2.9,0.993 0.709,0.662 1.063,1.553 1.063,2.672 0,0.844 -0.227,1.671 -0.682,2.483 -0.453,0.812 -1.313,1.844 -2.578,3.098 l -3.104,3.032 0,0.035 6.24,0 0,1.529 z"
       id="path17"
       inkscape:connector-curvature="0"
       style="fill:#444344" /><path
       d="m 67.811,59.742 c 0,-2.402 0.398,-4.22 1.195,-5.454 0.797,-1.234 1.951,-1.85 3.463,-1.85 2.883,0 4.324,2.326 4.324,6.979 0,2.297 -0.406,4.053 -1.217,5.269 -0.813,1.216 -1.949,1.824 -3.414,1.824 -1.383,0 -2.455,-0.577 -3.213,-1.731 -0.76,-1.155 -1.138,-2.834 -1.138,-5.037 z m 1.757,-0.079 c 0,3.615 0.918,5.423 2.752,5.423 1.805,0 2.707,-1.837 2.707,-5.511 0,-3.803 -0.885,-5.704 -2.654,-5.704 -1.869,0 -2.805,1.931 -2.805,5.792 z"
       id="path19"
       inkscape:connector-curvature="0"
       style="fill:#444344" /></g><g
     id="g21"
     transform="matrix(2.4334762,0,0,2.7210356,-7.137278,-0.15919875)"><path
       d="m 10.661,46.616 -3.68,0 0,-0.664 1.758,-1.754 c 0.484,-0.484 0.809,-0.868 0.973,-1.15 0.164,-0.282 0.246,-0.575 0.246,-0.877 0,-0.344 -0.096,-0.607 -0.289,-0.791 -0.193,-0.184 -0.471,-0.275 -0.836,-0.275 -0.539,0 -1.053,0.229 -1.543,0.688 l 0,-0.777 c 0.477,-0.367 1.031,-0.551 1.664,-0.551 0.544,0 0.974,0.147 1.289,0.441 0.315,0.294 0.473,0.69 0.473,1.188 0,0.375 -0.101,0.743 -0.303,1.104 -0.202,0.361 -0.584,0.82 -1.146,1.377 l -1.379,1.348 0,0.016 2.773,0 0,0.677 z"
       id="path23"
       inkscape:connector-curvature="0"
       style="fill:#494646" /><path
       d="m 11.614,43.71 c 0,-1.068 0.177,-1.875 0.531,-2.424 0.354,-0.549 0.867,-0.822 1.539,-0.822 1.281,0 1.922,1.034 1.922,3.102 0,1.021 -0.18,1.801 -0.541,2.342 -0.361,0.541 -0.867,0.811 -1.518,0.811 -0.615,0 -1.09,-0.256 -1.428,-0.77 -0.338,-0.514 -0.505,-1.26 -0.505,-2.239 z m 0.781,-0.035 c 0,1.607 0.408,2.41 1.223,2.41 0.802,0 1.203,-0.816 1.203,-2.449 0,-1.69 -0.393,-2.535 -1.18,-2.535 -0.83,0 -1.246,0.857 -1.246,2.574 z"
       id="path25"
       inkscape:connector-curvature="0"
       style="fill:#494646" /><path
       d="m 20.157,46.616 -3.469,0 0,-0.66 1.355,0 0,-4.594 -1.391,0.402 0,-0.703 2.152,-0.625 0,5.52 1.352,0 0,0.66 z"
       id="path27"
       inkscape:connector-curvature="0"
       style="fill:#494646" /><path
       d="m 24.618,41.343 c -0.315,-0.162 -0.645,-0.242 -0.988,-0.242 -0.523,0 -0.944,0.228 -1.262,0.684 -0.318,0.456 -0.479,1.078 -0.484,1.867 l 0.02,0 c 0.287,-0.555 0.744,-0.832 1.371,-0.832 0.523,0 0.941,0.17 1.254,0.512 0.313,0.342 0.469,0.794 0.469,1.359 0,0.591 -0.18,1.077 -0.541,1.457 -0.361,0.38 -0.821,0.57 -1.381,0.57 -0.615,0 -1.097,-0.24 -1.447,-0.721 -0.35,-0.481 -0.525,-1.162 -0.525,-2.045 0,-1.068 0.23,-1.916 0.689,-2.545 0.459,-0.629 1.064,-0.943 1.814,-0.943 0.43,0 0.767,0.059 1.012,0.176 l 0,0.703 z m -2.688,3.293 c 0,0.398 0.106,0.74 0.318,1.023 0.212,0.283 0.494,0.426 0.846,0.426 0.333,0 0.604,-0.123 0.813,-0.367 0.209,-0.244 0.313,-0.56 0.313,-0.945 0,-0.417 -0.098,-0.741 -0.295,-0.973 -0.197,-0.232 -0.476,-0.348 -0.838,-0.348 -0.344,0 -0.623,0.117 -0.836,0.352 -0.213,0.235 -0.321,0.511 -0.321,0.832 z"
       id="path29"
       inkscape:connector-curvature="0"
       style="fill:#494646" /><path
       d="m 28.821,40.565 -2.902,7.055 -0.715,0 2.902,-7.055 0.715,0 z"
       id="path31"
       inkscape:connector-curvature="0"
       style="fill:#494646" /><path
       d="m 29.442,45.687 c 0.406,0.266 0.83,0.398 1.27,0.398 0.417,0 0.752,-0.117 1.008,-0.35 0.256,-0.233 0.383,-0.542 0.383,-0.928 0,-0.388 -0.129,-0.689 -0.389,-0.902 -0.26,-0.213 -0.635,-0.32 -1.127,-0.32 -0.237,0 -0.556,0.018 -0.957,0.055 l 0,-3.074 2.977,0 0,0.676 -2.267,0 0,1.711 c 0.227,-0.013 0.397,-0.02 0.512,-0.02 0.638,0 1.135,0.162 1.492,0.484 0.357,0.322 0.535,0.768 0.535,1.336 0,0.586 -0.191,1.06 -0.574,1.422 -0.383,0.362 -0.912,0.543 -1.586,0.543 -0.565,0 -0.991,-0.083 -1.277,-0.25 l 0,-0.781 z"
       id="path33"
       inkscape:connector-curvature="0"
       style="fill:#494646" /><path
       d="m 36.93,40.565 -2.902,7.055 -0.715,0 2.902,-7.055 0.715,0 z"
       id="path35"
       inkscape:connector-curvature="0"
       style="fill:#494646" /><path
       d="m 40.954,46.616 -3.68,0 0,-0.664 1.758,-1.754 c 0.484,-0.484 0.809,-0.868 0.973,-1.15 0.164,-0.282 0.246,-0.575 0.246,-0.877 0,-0.344 -0.096,-0.607 -0.289,-0.791 -0.193,-0.184 -0.471,-0.275 -0.836,-0.275 -0.539,0 -1.053,0.229 -1.543,0.688 l 0,-0.777 c 0.477,-0.367 1.031,-0.551 1.664,-0.551 0.544,0 0.974,0.147 1.289,0.441 0.315,0.294 0.473,0.69 0.473,1.188 0,0.375 -0.101,0.743 -0.303,1.104 -0.202,0.361 -0.584,0.82 -1.146,1.377 l -1.379,1.348 0,0.016 2.773,0 0,0.677 z"
       id="path37"
       inkscape:connector-curvature="0"
       style="fill:#494646" /><path
       d="m 45.528,41.343 c -0.315,-0.162 -0.645,-0.242 -0.988,-0.242 -0.523,0 -0.944,0.228 -1.262,0.684 -0.318,0.456 -0.479,1.078 -0.484,1.867 l 0.02,0 c 0.287,-0.555 0.744,-0.832 1.371,-0.832 0.523,0 0.941,0.17 1.254,0.512 0.313,0.342 0.469,0.794 0.469,1.359 0,0.591 -0.18,1.077 -0.541,1.457 -0.361,0.38 -0.821,0.57 -1.381,0.57 -0.615,0 -1.097,-0.24 -1.447,-0.721 -0.35,-0.481 -0.525,-1.162 -0.525,-2.045 0,-1.068 0.23,-1.916 0.689,-2.545 0.459,-0.629 1.064,-0.943 1.814,-0.943 0.43,0 0.767,0.059 1.012,0.176 l 0,0.703 z m -2.688,3.293 c 0,0.398 0.106,0.74 0.318,1.023 0.212,0.283 0.494,0.426 0.846,0.426 0.333,0 0.604,-0.123 0.813,-0.367 0.209,-0.244 0.313,-0.56 0.313,-0.945 0,-0.417 -0.098,-0.741 -0.295,-0.973 -0.197,-0.232 -0.476,-0.348 -0.838,-0.348 -0.344,0 -0.623,0.117 -0.836,0.352 -0.213,0.235 -0.321,0.511 -0.321,0.832 z"
       id="path39"
       inkscape:connector-curvature="0"
       style="fill:#494646" /></g><g
     id="g41"
     transform="matrix(2.4334762,0,0,2.7210356,-7.137278,-0.15919875)"><path
       d="m 84.902,53.237 2.256,5.712 -0.377,0 -0.719,-1.832 -2.736,0 -0.729,1.832 -0.375,0 2.295,-5.712 0.385,0 z m 1.047,3.576 -1.223,-3.232 -0.018,0 -1.271,3.232 2.512,0 z"
       id="path43"
       inkscape:connector-curvature="0"
       style="fill:#323333" /><path
       d="m 87.566,53.237 0.504,0 2.232,5.32 0.016,0 2.207,-5.32 0.504,0 0,5.712 -0.352,0 0,-5.28 -0.016,0 -2.176,5.28 -0.352,0 -2.201,-5.28 -0.016,0 0,5.28 -0.352,0 0,-5.712 z"
       id="path45"
       inkscape:connector-curvature="0"
       style="fill:#323333" /></g><rect
     x="4.9790001"
     y="247.45235"
     width="227.22583"
     height="1.8720725"
     id="rect47"
     style="fill:#cccece" /><ellipse
     cx="16.01968"
     cy="277.69119"
     id="circle49"
     rx="2.3093688"
     ry="2.5822628"
     style="fill:#515151" /><g
     id="g51"
     transform="matrix(2.4334762,0,0,2.7210356,-7.137278,-0.15919875)"><path
       d="m 22.574,104.437 0,-3.247 c 0,-0.68 -0.106,-1.157 -0.32,-1.431 -0.214,-0.274 -0.549,-0.41 -1.008,-0.41 -0.426,0 -0.794,0.183 -1.104,0.547 -0.31,0.364 -0.464,0.823 -0.464,1.377 l 0,3.164 -0.483,0 0,-3.286 c 0,-1.201 -0.458,-1.802 -1.372,-1.802 -0.439,0 -0.806,0.185 -1.099,0.552 -0.293,0.367 -0.439,0.844 -0.439,1.426 l 0,3.11 -0.483,0 0,-5.4 0.483,0 0,0.898 0.024,0 c 0.375,-0.687 0.924,-1.03 1.65,-1.03 0.394,0 0.731,0.113 1.011,0.34 0.28,0.226 0.469,0.524 0.566,0.896 0.169,-0.391 0.411,-0.694 0.725,-0.911 0.314,-0.216 0.655,-0.324 1.023,-0.324 1.182,0 1.772,0.73 1.772,2.192 l 0,3.34 -0.482,0 z"
       id="path53"
       inkscape:connector-curvature="0"
       style="fill:#4f4f4f" /><path
       d="m 24.795,101.756 c 0,0.742 0.171,1.322 0.513,1.74 0.342,0.419 0.812,0.628 1.411,0.628 0.605,0 1.196,-0.224 1.772,-0.669 l 0,0.518 c -0.56,0.396 -1.183,0.596 -1.87,0.596 -0.697,0 -1.26,-0.25 -1.689,-0.75 -0.43,-0.499 -0.645,-1.203 -0.645,-2.111 0,-0.787 0.225,-1.451 0.674,-1.992 0.449,-0.541 1.032,-0.811 1.748,-0.811 0.67,0 1.186,0.236 1.545,0.708 0.359,0.472 0.54,1.114 0.54,1.929 l 0,0.215 -3.999,0 z m 3.492,-0.44 c -0.023,-0.625 -0.172,-1.109 -0.449,-1.453 -0.277,-0.343 -0.659,-0.515 -1.147,-0.515 -0.508,0 -0.928,0.169 -1.26,0.508 -0.332,0.339 -0.537,0.825 -0.615,1.46 l 3.471,0 z"
       id="path55"
       inkscape:connector-curvature="0"
       style="fill:#4f4f4f" /><path
       d="m 30.25,101.756 c 0,0.742 0.171,1.322 0.513,1.74 0.342,0.419 0.812,0.628 1.411,0.628 0.605,0 1.196,-0.224 1.772,-0.669 l 0,0.518 c -0.56,0.396 -1.183,0.596 -1.87,0.596 -0.697,0 -1.26,-0.25 -1.689,-0.75 -0.43,-0.499 -0.645,-1.203 -0.645,-2.111 0,-0.787 0.225,-1.451 0.674,-1.992 0.449,-0.541 1.032,-0.811 1.748,-0.811 0.67,0 1.186,0.236 1.545,0.708 0.359,0.472 0.54,1.114 0.54,1.929 l 0,0.215 -3.999,0 z m 3.491,-0.44 c -0.023,-0.625 -0.172,-1.109 -0.449,-1.453 -0.277,-0.343 -0.659,-0.515 -1.147,-0.515 -0.508,0 -0.928,0.169 -1.26,0.508 -0.332,0.339 -0.537,0.825 -0.615,1.46 l 3.471,0 z"
       id="path57"
       inkscape:connector-curvature="0"
       style="fill:#4f4f4f" /><path
       d="m 37.725,104.363 c -0.254,0.121 -0.492,0.181 -0.713,0.181 -0.797,0 -1.196,-0.479 -1.196,-1.436 l 0,-3.628 -0.972,0 0,-0.444 0.972,0 0,-1.401 c 0.075,-0.029 0.155,-0.057 0.239,-0.083 0.084,-0.026 0.166,-0.054 0.244,-0.083 l 0,1.567 1.426,0 0,0.444 -1.426,0 0,3.564 c 0,0.371 0.059,0.641 0.176,0.809 0.117,0.167 0.317,0.251 0.601,0.251 0.199,0 0.415,-0.065 0.649,-0.195 l 0,0.454 z"
       id="path59"
       inkscape:connector-curvature="0"
       style="fill:#4f4f4f" /><path
       d="m 39.034,97.674 c -0.107,0 -0.201,-0.038 -0.281,-0.115 -0.08,-0.076 -0.12,-0.174 -0.12,-0.295 0,-0.113 0.041,-0.207 0.122,-0.281 0.082,-0.072 0.174,-0.109 0.278,-0.109 0.107,0 0.203,0.035 0.286,0.105 0.083,0.069 0.125,0.164 0.125,0.285 0,0.113 -0.041,0.211 -0.122,0.291 -0.082,0.079 -0.177,0.119 -0.288,0.119 z m -0.24,6.763 0,-5.4 0.483,0 0,5.4 -0.483,0 z"
       id="path61"
       inkscape:connector-curvature="0"
       style="fill:#4f4f4f" /><path
       d="m 44.683,104.437 0,-3.145 c 0,-1.296 -0.467,-1.943 -1.401,-1.943 -0.521,0 -0.949,0.19 -1.284,0.571 -0.335,0.381 -0.503,0.854 -0.503,1.416 l 0,3.101 -0.483,0 0,-5.4 0.483,0 0,0.981 0.024,0 c 0.394,-0.742 1.009,-1.113 1.846,-1.113 0.583,0 1.029,0.194 1.338,0.584 0.309,0.389 0.464,0.943 0.464,1.662 l 0,3.286 -0.484,0 z"
       id="path63"
       inkscape:connector-curvature="0"
       style="fill:#4f4f4f" /><path
       d="m 51.114,104.036 c 0,1.016 -0.222,1.759 -0.667,2.229 -0.444,0.47 -1.134,0.705 -2.068,0.705 -0.521,0 -1.056,-0.137 -1.606,-0.41 l 0,-0.503 c 0.57,0.315 1.108,0.474 1.616,0.474 1.491,0 2.236,-0.787 2.236,-2.363 l 0,-0.703 -0.02,0 c -0.426,0.736 -1.076,1.104 -1.948,1.104 -0.664,0 -1.206,-0.24 -1.626,-0.723 -0.42,-0.483 -0.63,-1.154 -0.63,-2.017 0,-0.859 0.227,-1.562 0.681,-2.106 0.454,-0.546 1.052,-0.818 1.794,-0.818 0.794,0 1.371,0.328 1.729,0.986 l 0.02,0 0,-0.854 0.488,0 0,4.999 z m -0.489,-2.925 c 0,-0.479 -0.16,-0.893 -0.481,-1.24 -0.321,-0.347 -0.74,-0.522 -1.257,-0.522 -0.596,0 -1.074,0.224 -1.436,0.669 -0.362,0.445 -0.542,1.037 -0.542,1.772 0,0.739 0.166,1.313 0.498,1.722 0.332,0.408 0.77,0.612 1.313,0.612 0.583,0 1.046,-0.188 1.389,-0.563 0.343,-0.377 0.515,-0.836 0.515,-1.38 l 0,-1.07 z"
       id="path65"
       inkscape:connector-curvature="0"
       style="fill:#4f4f4f" /></g><path
     d="m 232.6745,16.063621 c 1.48685,0 2.3045,1.34691 2.3045,3.00675 0,1.65983 -0.81765,3.00674 -2.3045,3.00674 l 0,-6.01349 z"
     id="path67"
     inkscape:connector-curvature="0"
     style="clip-rule:evenodd;fill:#515a5d;fill-rule:evenodd" /><path
     d="m 229.59858,11.769821 c 0.84929,0 1.53796,0.77006 1.53796,1.71698 l 0,11.16985 c 0,0.94692 -0.68867,1.71697 -1.53796,1.71697 l -29.96825,0 c -0.84929,0 -1.53796,-0.77005 -1.53796,-1.71697 l 0,-11.16985 c 0,-0.94692 0.68867,-1.71698 1.53796,-1.71698 l 29.96825,0 m 0,-0.85984 -29.96825,0 c -1.27028,0 -2.30451,1.15644 -2.30451,2.57682 l 0,11.16985 c 0,1.4231 1.03423,2.57683 2.30451,2.57683 l 29.96825,0 c 1.27271,0 2.30451,-1.15373 2.30451,-2.57683 l 0,-11.16985 c 0,-1.42038 -1.02936,-2.57682 -2.30451,-2.57682"
     id="path69"
     inkscape:connector-curvature="0"
     style="fill:#515a5d" /><path
     d="m 200.39687,12.626951 28.43517,0 c 0.84928,0 1.53796,0.77005 1.53796,1.71969 l 0,9.45289 c 0,0.94964 -0.68868,1.71969 -1.53796,1.71969 l -28.43517,0 c -0.84928,0 -1.53552,-0.77005 -1.53552,-1.71969 l 0,-9.45289 c 0,-0.94964 0.68867,-1.71969 1.53552,-1.71969"
     id="path71"
     inkscape:connector-curvature="0"
     style="clip-rule:evenodd;fill:#515a5d;fill-rule:evenodd" /><g
     id="g73"
     transform="matrix(2.4334762,0,0,2.7210356,-7.137278,-0.15919875)"><path
       d="m 69.028,9.437 0,-3.933 c -0.255,0.242 -0.603,0.438 -1.046,0.589 l 0,-0.257 c 0.227,-0.078 0.434,-0.175 0.619,-0.292 0.188,-0.117 0.392,-0.279 0.615,-0.485 l 0.096,0 0,4.378 -0.284,0 z"
       id="path75"
       inkscape:connector-curvature="0"
       style="fill:#515a5d" /><path
       d="m 71.47,9.511 c -0.401,0 -0.714,-0.185 -0.935,-0.555 -0.221,-0.37 -0.332,-0.893 -0.332,-1.569 0,-0.763 0.117,-1.338 0.353,-1.726 0.236,-0.388 0.571,-0.581 1.009,-0.581 0.827,0 1.241,0.732 1.241,2.196 0,0.719 -0.116,1.271 -0.347,1.656 -0.232,0.386 -0.562,0.579 -0.989,0.579 z m 0.069,-4.17 c -0.326,0 -0.58,0.167 -0.764,0.502 -0.182,0.334 -0.273,0.837 -0.273,1.509 0,0.603 0.086,1.07 0.259,1.402 0.173,0.332 0.421,0.498 0.745,0.498 0.318,0 0.564,-0.169 0.738,-0.506 0.174,-0.337 0.26,-0.813 0.26,-1.427 0,-1.319 -0.321,-1.978 -0.965,-1.978 z"
       id="path77"
       inkscape:connector-curvature="0"
       style="fill:#515a5d" /><path
       d="m 74.628,9.511 c -0.401,0 -0.714,-0.185 -0.935,-0.555 -0.221,-0.37 -0.332,-0.893 -0.332,-1.569 0,-0.763 0.117,-1.338 0.353,-1.726 0.236,-0.388 0.571,-0.581 1.009,-0.581 0.827,0 1.241,0.732 1.241,2.196 0,0.719 -0.116,1.271 -0.347,1.656 -0.232,0.386 -0.561,0.579 -0.989,0.579 z m 0.069,-4.17 c -0.326,0 -0.58,0.167 -0.764,0.502 -0.181,0.334 -0.273,0.837 -0.273,1.509 0,0.603 0.086,1.07 0.259,1.402 0.173,0.332 0.421,0.498 0.745,0.498 0.318,0 0.564,-0.169 0.738,-0.506 0.174,-0.337 0.26,-0.813 0.26,-1.427 0,-1.319 -0.321,-1.978 -0.965,-1.978 z"
       id="path79"
       inkscape:connector-curvature="0"
       style="fill:#515a5d" /><path
       d="m 77.479,7.263 c -0.299,0 -0.538,-0.099 -0.72,-0.296 -0.18,-0.197 -0.271,-0.46 -0.271,-0.788 0,-0.339 0.093,-0.609 0.276,-0.809 0.185,-0.2 0.433,-0.3 0.744,-0.3 0.303,0 0.54,0.099 0.713,0.296 0.174,0.197 0.261,0.465 0.261,0.802 0,0.313 -0.093,0.574 -0.278,0.782 -0.184,0.209 -0.427,0.313 -0.725,0.313 z m 0.025,-1.942 c -0.229,0 -0.408,0.076 -0.539,0.227 -0.131,0.151 -0.196,0.362 -0.196,0.633 0,0.262 0.065,0.466 0.194,0.614 0.131,0.147 0.305,0.221 0.521,0.221 0.224,0 0.399,-0.077 0.529,-0.232 0.129,-0.155 0.193,-0.362 0.193,-0.623 0,-0.266 -0.061,-0.472 -0.184,-0.619 -0.12,-0.146 -0.293,-0.221 -0.518,-0.221 z m -0.014,4.212 -0.305,0 2.59,-4.375 0.293,0 -2.578,4.375 z m 2.34,-0.022 c -0.299,0 -0.538,-0.1 -0.718,-0.299 -0.18,-0.199 -0.27,-0.461 -0.27,-0.785 0,-0.337 0.093,-0.607 0.276,-0.809 0.185,-0.202 0.433,-0.303 0.744,-0.303 0.295,0 0.53,0.098 0.707,0.293 0.176,0.196 0.264,0.466 0.264,0.811 0,0.317 -0.094,0.578 -0.279,0.784 -0.186,0.205 -0.427,0.308 -0.724,0.308 z m 0.025,-1.944 c -0.224,0 -0.401,0.078 -0.534,0.232 -0.133,0.154 -0.199,0.366 -0.199,0.633 0,0.256 0.063,0.459 0.19,0.608 0.127,0.149 0.303,0.224 0.525,0.224 0.224,0 0.399,-0.077 0.529,-0.229 0.129,-0.153 0.193,-0.36 0.193,-0.623 C 80.559,8.134 80.496,7.923 80.37,7.78 80.244,7.639 80.072,7.567 79.855,7.567 Z"
       id="path81"
       inkscape:connector-curvature="0"
       style="fill:#515a5d" /></g></svg>