<?xml version="1.0" encoding="UTF-8" standalone="no"?>
<!-- Generator: Adobe Illustrator 16.0.0, SVG Export Plug-In . SVG Version: 6.00 Build 0)  -->

<svg
   xmlns:dc="http://purl.org/dc/elements/1.1/"
   xmlns:cc="http://creativecommons.org/ns#"
   xmlns:rdf="http://www.w3.org/1999/02/22-rdf-syntax-ns#"
   xmlns:svg="http://www.w3.org/2000/svg"
   xmlns="http://www.w3.org/2000/svg"
   xmlns:sodipodi="http://sodipodi.sourceforge.net/DTD/sodipodi-0.dtd"
   xmlns:inkscape="http://www.inkscape.org/namespaces/inkscape"
   version="1.1"
   id="圖層_1"
   x="0px"
   y="0px"
   width="103.797px"
   height="138.758px"
   viewBox="0 0 103.797 138.758"
   enable-background="new 0 0 103.797 138.758"
   xml:space="preserve"
   inkscape:version="0.91 r13725"
   sodipodi:docname="12.svg"><metadata
     id="metadata93"><rdf:RDF><cc:Work
         rdf:about=""><dc:format>image/svg+xml</dc:format><dc:type
           rdf:resource="http://purl.org/dc/dcmitype/StillImage" /></cc:Work></rdf:RDF></metadata><defs
     id="defs91" /><sodipodi:namedview
     pagecolor="#ffffff"
     bordercolor="#666666"
     borderopacity="1"
     objecttolerance="10"
     gridtolerance="10"
     guidetolerance="10"
     inkscape:pageopacity="0"
     inkscape:pageshadow="2"
     inkscape:window-width="1920"
     inkscape:window-height="1016"
     id="namedview89"
     showgrid="false"
     inkscape:zoom="2.4052985"
     inkscape:cx="102.14635"
     inkscape:cy="132.12455"
     inkscape:window-x="0"
     inkscape:window-y="27"
     inkscape:window-maximized="1"
     inkscape:current-layer="圖層_1" /><rect
     x="5.783"
     y="98.01"
     fill="#CCCECE"
     width="92.375"
     height="0.688"
     id="rect11" /><g
     id="g13"><path
       fill="#525B5E"
       d="M12.506,34.232c0.277,0.242,0.648,0.441,1.113,0.598s0.906,0.234,1.324,0.234   c1.273,0,1.91-0.453,1.91-1.359c0-0.254-0.068-0.482-0.205-0.686s-0.324-0.383-0.563-0.539s-0.686-0.396-1.342-0.721   c-0.91-0.453-1.51-0.874-1.799-1.263s-0.434-0.833-0.434-1.333c0-0.754,0.303-1.352,0.908-1.793s1.369-0.662,2.291-0.662   c0.902,0,1.564,0.109,1.986,0.328v1.277c-0.547-0.379-1.238-0.568-2.074-0.568c-0.555,0-1.007,0.116-1.356,0.349   s-0.524,0.556-0.524,0.97c0,0.367,0.121,0.666,0.363,0.896s0.768,0.545,1.576,0.943c0.891,0.426,1.514,0.852,1.869,1.277   s0.533,0.904,0.533,1.436c0,0.797-0.289,1.408-0.867,1.834s-1.381,0.639-2.408,0.639c-0.359,0-0.778-0.05-1.257-0.149   s-0.827-0.224-1.046-0.372V34.232z"
       id="path15" /><path
       fill="#525B5E"
       d="M25.057,35.938h-1.154v-1.02h-0.023c-0.434,0.781-1.1,1.172-1.998,1.172c-1.535,0-2.303-0.918-2.303-2.754   v-3.879h1.137v3.709c0,1.316,0.504,1.975,1.512,1.975c0.5,0,0.904-0.185,1.213-0.554s0.463-0.835,0.463-1.397v-3.732h1.154V35.938z   "
       id="path17" /><path
       fill="#525B5E"
       d="M32.727,35.393c0,2.398-1.164,3.598-3.492,3.598c-0.805,0-1.504-0.15-2.098-0.451v-1.107   c0.723,0.402,1.416,0.604,2.08,0.604c1.574,0,2.361-0.828,2.361-2.484v-0.686h-0.023c-0.492,0.816-1.227,1.225-2.203,1.225   c-0.813,0-1.463-0.291-1.951-0.873s-0.732-1.354-0.732-2.314c0-1.105,0.27-1.981,0.809-2.628s1.258-0.97,2.156-0.97   c0.863,0,1.504,0.344,1.922,1.031h0.023v-0.879h1.148V35.393z M31.579,32.082c0.004-0.5-0.164-0.93-0.504-1.289   s-0.758-0.539-1.254-0.539c-0.625,0-1.111,0.229-1.459,0.688s-0.521,1.089-0.521,1.89c0,0.688,0.168,1.244,0.504,1.67   s0.781,0.639,1.336,0.639c0.559,0,1.016-0.203,1.371-0.609s0.531-0.922,0.527-1.547V32.082z"
       id="path19" /><path
       fill="#525B5E"
       d="M34.93,29.908c0.645-0.402,1.389-0.604,2.232-0.604c1.563,0,2.344,0.82,2.344,2.461v4.172H38.37v-1.002   H38.34c-0.449,0.77-1.111,1.154-1.986,1.154c-0.629,0-1.129-0.17-1.5-0.51s-0.557-0.799-0.557-1.377   c0-1.211,0.717-1.916,2.15-2.115l1.922-0.27c0-1.059-0.438-1.588-1.313-1.588c-0.777,0-1.486,0.262-2.127,0.785V29.908z    M36.852,32.891c-0.531,0.07-0.897,0.203-1.099,0.398s-0.302,0.469-0.302,0.82c0,0.309,0.109,0.561,0.328,0.756   s0.508,0.293,0.867,0.293c0.5,0,0.912-0.176,1.236-0.527s0.486-0.793,0.486-1.324v-0.621L36.852,32.891z"
       id="path21" /><path
       fill="#525B5E"
       d="M44.885,30.594c-0.191-0.137-0.455-0.205-0.791-0.205c-0.445,0-0.813,0.208-1.102,0.624   s-0.434,0.964-0.434,1.644v3.281h-1.148v-6.48h1.148v1.318h0.023c0.328-0.953,0.895-1.43,1.699-1.43   c0.262,0,0.463,0.029,0.604,0.088V30.594z"
       id="path23" /></g><g
     id="g25"><polygon
       fill="#515A5D"
       points="47.742,74.973 57.218,80.764 47.742,86.555  "
       id="polygon27" /><polygon
       fill="#515A5D"
       points="27.621,76.289 19.986,80.698 27.621,85.106  "
       id="polygon29" /><polygon
       fill="#515A5D"
       points="20.25,76.289 12.881,80.698 20.25,85.106  "
       id="polygon31" /><polygon
       fill="#515A5D"
       points="73.755,85.063 81.389,80.656 73.755,76.247  "
       id="polygon33" /><polygon
       fill="#515A5D"
       points="81.125,85.063 88.495,80.656 81.125,76.247  "
       id="polygon35" /></g><g
     id="g37"><path
       opacity="0.4"
       d="M18.486,48.05v-4.293c0-0.104,0.016-0.401,0.047-0.891h-0.016c-0.088,0.227-0.162,0.402-0.219,0.527   l-2.152,4.656h-0.137l-2.16-4.633c-0.07-0.148-0.137-0.338-0.199-0.57h-0.02c0.021,0.271,0.031,0.541,0.031,0.809v4.395h-0.418   v-6.051h0.387l2.258,4.875c0.013,0.026,0.029,0.064,0.047,0.113c0.016,0.047,0.034,0.095,0.055,0.145   c0.029,0.073,0.057,0.154,0.086,0.242h0.027l0.047-0.133c0.002-0.013,0.051-0.147,0.145-0.402l2.223-4.84h0.371v6.051H18.486z"
       id="path39" /><path
       opacity="0.4"
       d="M22.935,48.05v-0.863h-0.016c-0.138,0.294-0.338,0.529-0.602,0.705s-0.555,0.264-0.875,0.264   c-0.412,0-0.737-0.115-0.977-0.346s-0.359-0.521-0.359-0.873c0-0.755,0.5-1.211,1.5-1.367l1.328-0.199   c0-0.927-0.349-1.391-1.047-1.391c-0.474,0-0.936,0.191-1.387,0.574v-0.469c0.159-0.127,0.375-0.236,0.65-0.326   s0.533-0.135,0.775-0.135c0.445,0,0.789,0.138,1.031,0.414s0.363,0.677,0.363,1.203v2.809H22.935z M21.748,45.897   c-0.453,0.065-0.771,0.17-0.955,0.314s-0.275,0.381-0.275,0.709c0,0.255,0.085,0.465,0.256,0.631s0.408,0.248,0.713,0.248   c0.414,0,0.759-0.154,1.035-0.461s0.414-0.705,0.414-1.191v-0.422L21.748,45.897z"
       id="path41" /><path
       opacity="0.4"
       d="M26.662,44.136c-0.13-0.094-0.283-0.141-0.457-0.141c-0.341,0-0.627,0.176-0.857,0.527   s-0.346,0.852-0.346,1.5v2.027h-0.379v-4.32h0.379v0.957h0.02c0.096-0.328,0.252-0.584,0.467-0.768s0.463-0.275,0.744-0.275   c0.159,0,0.302,0.026,0.43,0.078V44.136z"
       id="path43" /><path
       opacity="0.4"
       d="M29.037,48.155c-0.63,0-1.129-0.208-1.496-0.623s-0.551-0.954-0.551-1.615c0-0.719,0.192-1.281,0.576-1.686   s0.89-0.607,1.518-0.607c0.615,0,1.101,0.201,1.459,0.604s0.537,0.959,0.537,1.67c0,0.672-0.182,1.216-0.547,1.633   S29.669,48.155,29.037,48.155z M29.068,43.979c-0.51,0-0.917,0.171-1.219,0.514s-0.453,0.82-0.453,1.432   c0,0.565,0.148,1.019,0.443,1.361s0.699,0.514,1.209,0.514c0.521,0,0.922-0.168,1.203-0.506s0.422-0.805,0.422-1.404   c0-0.615-0.14-1.086-0.42-1.416S29.578,43.979,29.068,43.979z"
       id="path45" /><path
       opacity="0.4"
       d="M33.884,48.155c-0.63,0-1.129-0.208-1.496-0.623s-0.551-0.954-0.551-1.615c0-0.719,0.192-1.281,0.576-1.686   s0.89-0.607,1.518-0.607c0.615,0,1.101,0.201,1.459,0.604s0.537,0.959,0.537,1.67c0,0.672-0.182,1.216-0.547,1.633   S34.517,48.155,33.884,48.155z M33.916,43.979c-0.51,0-0.917,0.171-1.219,0.514s-0.453,0.82-0.453,1.432   c0,0.565,0.148,1.019,0.443,1.361s0.699,0.514,1.209,0.514c0.521,0,0.922-0.168,1.203-0.506s0.422-0.805,0.422-1.404   c0-0.615-0.14-1.086-0.42-1.416S34.426,43.979,33.916,43.979z"
       id="path47" /><path
       opacity="0.4"
       d="M39.935,48.05v-2.516c0-1.037-0.374-1.555-1.121-1.555c-0.417,0-0.759,0.152-1.027,0.457   s-0.402,0.682-0.402,1.133v2.48h-0.387v-4.32h0.387v0.785h0.02c0.315-0.594,0.807-0.891,1.477-0.891   c0.466,0,0.823,0.156,1.07,0.467s0.371,0.754,0.371,1.33v2.629H39.935z"
       id="path49" /><path
       opacity="0.4"
       d="M43.974,47.929v-0.449c0.388,0.213,0.773,0.32,1.156,0.32c0.495,0,0.881-0.136,1.16-0.408   s0.418-0.635,0.418-1.088c0-0.984-0.561-1.477-1.684-1.477c-0.252,0-0.543,0.017-0.871,0.051l0.184-2.879h2.516v0.355h-2.172   l-0.137,2.152c0.289-0.023,0.496-0.035,0.621-0.035c0.641,0,1.125,0.157,1.453,0.471s0.492,0.75,0.492,1.311   c0,0.565-0.174,1.023-0.523,1.375s-0.846,0.527-1.492,0.527C44.671,48.155,44.297,48.08,43.974,47.929z"
       id="path51" /></g><rect
     x="5.783"
     y="97.353"
     fill="#EA5C2B"
     width="7.098"
     height="1.813"
     id="rect53" /><circle
     fill="#EA5C2B"
     cx="12.467"
     cy="98.259"
     r="2.781"
     id="circle55" /><rect
     x="0.092"
     y="124.978"
     opacity="0.5"
     fill="#CCCECE"
     width="103.75"
     height="13.749"
     id="rect57" /><polygon
     fill="#FFFFFF"
     points="46.678,129.227 57.264,129.227 51.971,136.353 "
     id="polygon59" /><g
     id="g61"><path
       fill="#515A5D"
       d="M86.098,22.558c-0.26,0.187-0.303,0.537-0.107,0.785c1.965,2.478,3.133,5.574,3.133,8.933   c0,3.358-1.168,6.455-3.133,8.933c-0.195,0.248-0.152,0.598,0.107,0.785l0.012,0.008c0.252,0.182,0.614,0.14,0.806-0.101   c2.124-2.671,3.388-6.008,3.388-9.625s-1.264-6.955-3.388-9.626c-0.191-0.24-0.554-0.282-0.806-0.101L86.098,22.558z"
       id="path63" /><path
       fill="#515A5D"
       d="M86.069,32.276c0-2.757-0.997-5.245-2.834-7.001c-0.215-0.205-0.547-0.224-0.788-0.051   c-0.279,0.201-0.313,0.595-0.064,0.831c1.637,1.551,2.506,3.762,2.506,6.222s-0.869,4.671-2.506,6.222   c-0.248,0.236-0.215,0.629,0.064,0.831l0.017,0.011c0.226,0.163,0.547,0.151,0.747-0.04C85.064,37.542,86.069,35.045,86.069,32.276   "
       id="path65" /><path
       fill="#515A5D"
       d="M79.26,27.841l-0.014,0.01c-0.265,0.19-0.31,0.554-0.095,0.796c0.867,0.972,1.403,2.151,1.403,3.629   s-0.536,2.657-1.403,3.629c-0.215,0.242-0.17,0.605,0.095,0.796l0.014,0.01c0.248,0.178,0.596,0.137,0.796-0.09   c1.038-1.17,1.68-2.598,1.68-4.345c0-1.747-0.642-3.175-1.68-4.345C79.855,27.705,79.508,27.663,79.26,27.841"
       id="path67" /><path
       fill="#515A5D"
       d="M76.371,25.568l-5.01,3.757h-3.756c-0.26,0-0.471,0.21-0.471,0.47v2.535l0,0v0v2.474   c0,0.259,0.211,0.469,0.471,0.469h3.756l5.01,3.757v0h0.156V25.568H76.371z"
       id="path69" /></g><rect
     x="12.467"
     y="17.903"
     fill="#DBDDDD"
     width="4.133"
     height="6.2"
     id="rect71" /><rect
     x="24.867"
     y="19.97"
     fill="#DBDDDD"
     width="4.134"
     height="4.133"
     id="rect73" /><rect
     x="18.667"
     y="13.77"
     fill="#DBDDDD"
     width="4.134"
     height="10.333"
     id="rect75" /></svg>